<?xml version="1.0" standalone="no"?>
<!DOCTYPE svg PUBLIC "-//W3C//DTD SVG 20010904//EN"
 "http://www.w3.org/TR/2001/REC-SVG-20010904/DTD/svg10.dtd">
<svg version="1.0" xmlns="http://www.w3.org/2000/svg"
 width="512.000000pt" height="512.000000pt" viewBox="0 0 512.000000 512.000000"
 preserveAspectRatio="xMidYMid meet">
<metadata>
Created by potrace 1.14, written by Peter Selinger 2001-2017
</metadata>
<g transform="translate(0.000000,512.000000) scale(0.100000,-0.100000)"
fill="#000000" stroke="none">
<path d="M1200 5097 c-110 -33 -176 -73 -260 -157 -85 -84 -128 -157 -159
-269 -20 -72 -21 -99 -21 -892 0 -451 3 -819 7 -819 3 0 36 20 72 44 60 40
110 72 301 194 36 22 164 104 284 182 l220 140 690 1 c380 1 694 1 697 1 22
-3 163 44 214 71 91 48 204 165 248 257 60 123 67 170 66 478 -1 304 -8 356
-72 477 -46 89 -166 204 -258 249 -140 67 -109 66 -1079 65 l-875 0 -75 -22z
m1820 -387 c40 -11 88 -51 116 -95 17 -26 19 -55 22 -280 4 -273 1 -291 -55
-350 -63 -67 -24 -64 -839 -65 l-737 0 -171 -108 c-94 -60 -177 -112 -184
-116 -10 -6 -12 77 -10 442 l3 450 31 43 c18 24 52 54 75 66 l44 22 835 1
c521 0 848 -4 870 -10z"/>
<path d="M364 2568 c3 -128 8 -253 10 -278 3 -25 7 -74 11 -110 3 -36 10 -92
15 -125 5 -33 12 -82 15 -110 3 -27 7 -61 10 -75 3 -14 7 -41 10 -60 82 -512
272 -1043 499 -1395 156 -241 253 -331 421 -387 l70 -23 735 0 735 0 73 24
c141 46 235 123 350 288 l57 82 200 1 c110 0 230 2 266 4 114 6 301 62 391
115 18 11 46 28 63 37 16 9 35 23 43 30 7 8 17 14 22 14 4 0 43 35 87 77 158
154 243 310 299 548 4 17 9 170 10 341 4 348 -2 393 -69 519 -68 127 -220 251
-357 289 -79 22 -101 24 -245 25 l-130 1 3 200 4 200 -1802 0 -1803 0 7 -232z
m3182 -245 c-4 -43 -8 -89 -11 -103 -2 -14 -7 -50 -10 -80 -10 -96 -32 -252
-42 -295 -2 -11 -6 -33 -8 -50 -7 -43 -34 -166 -62 -275 -13 -52 -26 -102 -28
-110 -15 -63 -75 -239 -122 -355 -74 -187 -155 -340 -252 -480 -76 -110 -100
-135 -146 -156 -37 -17 -83 -18 -695 -19 -448 0 -668 3 -695 11 -47 13 -99 65
-169 170 -27 41 -58 86 -68 102 -36 53 -135 254 -180 367 -103 257 -183 557
-238 895 -18 109 -29 206 -46 383 l-6 72 1391 0 1392 0 -5 -77z m675 -333 c43
-12 104 -68 123 -113 20 -48 21 -507 1 -602 -43 -204 -205 -382 -405 -446 -48
-16 -103 -22 -207 -26 l-142 -6 35 84 c64 150 173 500 200 634 2 11 15 74 28
140 27 129 30 150 48 268 l11 77 136 0 c75 0 152 -5 172 -10z"/>
</g>
</svg>
